Coordinates
nRows=8
nColumns=24

# SIMM Motion File Header:
name Coordinates
datacolumns 24
datarows 8
otherdata 1
range 0.78932999999999998000 0.79632999999999998000

Units are S.I. units (second, meters, Newtons, ...)
Angles are in degrees.

endheader
time	pelvis_tx	pelvis_ty	pelvis_tz	pelvis_tilt	pelvis_list	pelvis_rotation	hip_flexion_r	hip_adduction_r	hip_rotation_r	knee_angle_r	ankle_angle_r	subtalar_angle_r	mtp_angle_r	hip_flexion_l	hip_adduction_l	hip_rotation_l	knee_angle_l	ankle_angle_l	subtalar_angle_l	mtp_angle_l	lumbar_extension	lumbar_bending	lumbar_rotation
      0.78932999999999998000	      1.89676844498410140000	      0.82027562212593219000	     -0.28274985626976867000	     -4.36805023578597320000	     -3.88094800764435590000	      3.23333788647900320000	     26.86561345400672700000	      5.03046188689833420000	      3.68489651679196980000	    -17.50236946219095600000	     -5.07481076895917660000	      0.00000000000000181647	      0.00000000000001192137	     -5.46327448049658140000	     -3.98439671600669730000	     -6.09370435823679290000	    -30.38043780804465000000	     -3.29869742314894100000	     -0.00000000000002144234	     -0.00000000000012874435	      8.84672119325863800000	      3.39937073629143470000	      7.19340149111983070000
      0.79032999999999998000	      1.89768530159592320000	      0.82037741781391060000	     -0.28259574820377281000	     -4.34261487313298030000	     -3.91194090507630720000	      3.22372507784574270000	     26.78612176134528900000	      5.09082254312564510000	      3.69231325255899100000	    -17.52911623439781200000	     -4.98424869509537150000	      0.00000000000000191172	      0.00000000000001184906	     -5.38456647076873460000	     -4.06586303388898520000	     -6.07980230966314750000	    -30.65736800862535100000	     -3.49553042797393500000	     -0.00000000000002135571	     -0.00000000000012944140	      8.82189798259780390000	      3.42157674811296710000	      7.22820601228392070000
      0.79132999999999998000	      1.89860039901783640000	      0.82047874973491952000	     -0.28244159395501489000	     -4.31717460287586970000	     -3.94243311306197430000	      3.21442148260946680000	     26.70574925467952100000	      5.15068238738699340000	      3.70078053900217350000	    -17.55401042222605300000	     -4.89481980005117020000	      0.00000000000000201306	      0.00000000000001176213	     -5.30500960311435770000	     -4.14700025437060750000	     -6.06525573666905960000	    -30.93513730001912900000	     -3.69235792848121180000	     -0.00000000000002126764	     -0.00000000000013015047	      8.79689876679834090000	      3.44294263489945740000	      7.26283883174294600000
      0.79232999999999998000	      1.89951371044891390000	      0.82057958119950691000	     -0.28228742519465239000	     -4.29173930940869840000	     -3.97241449543328030000	      3.20543012575831380000	     26.62451053063052700000	      5.21002064009865950000	      3.71027991922676790000	    -17.57705063467579300000	     -4.80656622069936290000	      0.00000000000000212843	      0.00000000000001166285	     -5.22460382181978480000	     -4.22778707403983220000	     -6.05007788801922080000	    -31.21371811795082300000	     -3.88909145477158270000	     -0.00000000000002116894	     -0.00000000000013089453	      8.77173338356517010000	      3.46346116626029770000	      7.29729079370293920000
      0.79332999999999998000	      1.90042520949686260000	      0.82067987619583882000	     -0.28213327336375305000	     -4.26631901834996970000	     -4.00187528325638460000	      3.19675370768244390000	     26.54242107598134100000	      5.26881695781949850000	      3.72079171032280210000	    -17.59823714301261800000	     -4.71952746276688020000	      0.00000000000000225406	      0.00000000000001156281	     -5.14334882979470810000	     -4.30820244136812390000	     -6.03428248409147280000	    -31.49308279460169800000	     -4.08564193141651000000	     -0.00000000000002106804	     -0.00000000000013165379	      8.74641190742313950000	      3.48312567717960860000	      7.33155297569518090000
      0.79432999999999998000	      1.90133487026715420000	      0.82077959938833200000	     -0.28197916966723330000	     -4.24092388818542080000	     -4.03080608283914100000	      3.18839460002932460000	     26.45949725537903100000	      5.32705145706555250000	      3.73229504445015750000	    -17.61757186986783500000	     -4.63374037761586610000	      0.00000000000000238096	      0.00000000000001147896	     -5.06124408917943120000	     -4.38822557922458230000	     -6.01788369264871290000	    -31.77320355453013400000	     -4.28191974036570680000	     -0.00000000000002097041	     -0.00000000000013241837	      8.72094465583946390000	      3.50193007675220970000	      7.36561668863341090000
      0.79532999999999998000	      1.90224266743465130000	      0.82087871611851526000	     -0.28182514506159606000	     -4.21556420179914950000	     -4.05919788295921700000	      3.18035484256337280000	     26.37575629586477500000	      5.38470473805856730000	      3.74476791282826050000	    -17.63505837381819700000	     -4.54923914685341750000	      0.00000000000000251552	      0.00000000000001137396	     -4.97828882285764870000	     -4.46783600746354460000	     -6.00089609758946630000	    -32.05405251510848100000	     -4.47783484422524580000	     -0.00000000000002087551	     -0.00000000000013318021	      8.69534219163861620000	      3.51986885442124060000	      7.39947347340704550000
      0.79632999999999998000	      1.90314857631179410000	      0.82097719240633538000	     -0.28167123024179225000	     -4.19025035789959330000	     -4.08704206175070260000	      3.17263613985419650000	     26.29121627095311100000	      5.44175790833211170000	      3.75818720915478540000	    -17.65070183501840600000	     -4.46605527315301480000	      0.00000000000000265372	      0.00000000000001125114	     -4.89448201704215700000	     -4.54701356541364280000	     -5.98333467480659480000	    -32.33560168161130100000	     -4.67329687448043440000	     -0.00000000000002077784	     -0.00000000000013393382	      8.66961532455128210000	      3.53693708568167420000	      7.43311509741247530000
